<mxfile host="app.diagrams.net" modified="2021-09-06T08:38:24.446Z" agent="5.0 (Macintosh; Intel Mac OS X 10_15_7) AppleWebKit/537.36 (KHTML, like Gecko) Chrome/92.0.4515.159 Safari/537.36" etag="IjjGm459A7GgHvpBZPPy" version="15.0.6" type="github">
  <diagram id="fYgDOWnkKd0Z5Vb0ao0X" name="Page-1">
    <mxGraphModel dx="1256" dy="811" grid="1" gridSize="10" guides="1" tooltips="1" connect="1" arrows="1" fold="1" page="1" pageScale="1" pageWidth="827" pageHeight="1169" math="0" shadow="0">
      <root>
        <mxCell id="0" />
        <mxCell id="1" parent="0" />
        <mxCell id="V11sSQZRBxnOTxt7Vm7f-1" value="Backend Node" style="rounded=1;whiteSpace=wrap;html=1;" vertex="1" parent="1">
          <mxGeometry x="160" y="370" width="120" height="60" as="geometry" />
        </mxCell>
        <mxCell id="V11sSQZRBxnOTxt7Vm7f-2" value="Worker Node" style="rounded=1;whiteSpace=wrap;html=1;" vertex="1" parent="1">
          <mxGeometry x="500" y="370" width="120" height="60" as="geometry" />
        </mxCell>
        <mxCell id="V11sSQZRBxnOTxt7Vm7f-3" value="meta" style="shape=cylinder3;whiteSpace=wrap;html=1;boundedLbl=1;backgroundOutline=1;size=15;" vertex="1" parent="1">
          <mxGeometry x="340" y="580" width="94" height="90" as="geometry" />
        </mxCell>
        <mxCell id="V11sSQZRBxnOTxt7Vm7f-4" value="" style="endArrow=classic;html=1;exitX=1;exitY=0.5;exitDx=0;exitDy=0;entryX=0;entryY=0.5;entryDx=0;entryDy=0;" edge="1" parent="1" source="V11sSQZRBxnOTxt7Vm7f-1" target="V11sSQZRBxnOTxt7Vm7f-2">
          <mxGeometry width="50" height="50" relative="1" as="geometry">
            <mxPoint x="60" y="490" as="sourcePoint" />
            <mxPoint x="400" y="420" as="targetPoint" />
          </mxGeometry>
        </mxCell>
        <mxCell id="V11sSQZRBxnOTxt7Vm7f-9" value="&lt;font style=&quot;font-size: 16px&quot;&gt;task&lt;/font&gt;" style="edgeLabel;html=1;align=center;verticalAlign=middle;resizable=0;points=[];" vertex="1" connectable="0" parent="V11sSQZRBxnOTxt7Vm7f-4">
          <mxGeometry relative="1" as="geometry">
            <mxPoint as="offset" />
          </mxGeometry>
        </mxCell>
        <mxCell id="V11sSQZRBxnOTxt7Vm7f-7" value="" style="endArrow=classic;html=1;exitX=0.5;exitY=1;exitDx=0;exitDy=0;entryX=1;entryY=0;entryDx=0;entryDy=15;entryPerimeter=0;" edge="1" parent="1" source="V11sSQZRBxnOTxt7Vm7f-2" target="V11sSQZRBxnOTxt7Vm7f-3">
          <mxGeometry width="50" height="50" relative="1" as="geometry">
            <mxPoint x="290" y="410" as="sourcePoint" />
            <mxPoint x="424" y="410" as="targetPoint" />
          </mxGeometry>
        </mxCell>
        <mxCell id="V11sSQZRBxnOTxt7Vm7f-8" value="&lt;font style=&quot;font-size: 16px&quot;&gt;callback&lt;/font&gt;" style="edgeLabel;html=1;align=center;verticalAlign=middle;resizable=0;points=[];" vertex="1" connectable="0" parent="V11sSQZRBxnOTxt7Vm7f-7">
          <mxGeometry x="-0.0002" y="2" relative="1" as="geometry">
            <mxPoint as="offset" />
          </mxGeometry>
        </mxCell>
        <mxCell id="V11sSQZRBxnOTxt7Vm7f-10" value="&lt;div style=&quot;text-align: justify&quot;&gt;&lt;span&gt;1. 上传人群&lt;/span&gt;&lt;br&gt;&lt;span&gt;2. 计算人群&lt;/span&gt;&lt;br&gt;&lt;/div&gt;" style="text;html=1;strokeColor=none;fillColor=none;align=center;verticalAlign=middle;whiteSpace=wrap;rounded=0;" vertex="1" parent="1">
          <mxGeometry x="340" y="410" width="100" height="40" as="geometry" />
        </mxCell>
        <mxCell id="V11sSQZRBxnOTxt7Vm7f-15" value="READ&amp;amp;WRITE" style="endArrow=classic;startArrow=classic;html=1;entryX=0.5;entryY=1;entryDx=0;entryDy=0;exitX=0;exitY=0;exitDx=0;exitDy=15;exitPerimeter=0;" edge="1" parent="1" source="V11sSQZRBxnOTxt7Vm7f-3" target="V11sSQZRBxnOTxt7Vm7f-1">
          <mxGeometry width="50" height="50" relative="1" as="geometry">
            <mxPoint x="250" y="530" as="sourcePoint" />
            <mxPoint x="300" y="480" as="targetPoint" />
          </mxGeometry>
        </mxCell>
        <mxCell id="V11sSQZRBxnOTxt7Vm7f-16" value="人群创建" style="rounded=0;whiteSpace=wrap;html=1;fillColor=#f5f5f5;strokeColor=#666666;fontColor=#333333;" vertex="1" parent="1">
          <mxGeometry x="120" y="210" width="90" height="40" as="geometry" />
        </mxCell>
        <mxCell id="V11sSQZRBxnOTxt7Vm7f-18" value="人群列表" style="rounded=0;whiteSpace=wrap;html=1;fillColor=#f5f5f5;strokeColor=#666666;fontColor=#333333;" vertex="1" parent="1">
          <mxGeometry x="220" y="210" width="90" height="40" as="geometry" />
        </mxCell>
        <mxCell id="V11sSQZRBxnOTxt7Vm7f-19" value="人群下载" style="rounded=0;whiteSpace=wrap;html=1;fillColor=#f5f5f5;strokeColor=#666666;fontColor=#333333;" vertex="1" parent="1">
          <mxGeometry x="120" y="260" width="90" height="40" as="geometry" />
        </mxCell>
        <mxCell id="V11sSQZRBxnOTxt7Vm7f-20" value="人群分析" style="rounded=0;whiteSpace=wrap;html=1;fillColor=#f5f5f5;strokeColor=#666666;fontColor=#333333;" vertex="1" parent="1">
          <mxGeometry x="220" y="260" width="90" height="40" as="geometry" />
        </mxCell>
        <mxCell id="V11sSQZRBxnOTxt7Vm7f-21" value="状态机" style="rounded=0;whiteSpace=wrap;html=1;fillColor=#f5f5f5;strokeColor=#666666;fontColor=#333333;" vertex="1" parent="1">
          <mxGeometry x="120" y="310" width="90" height="40" as="geometry" />
        </mxCell>
        <mxCell id="V11sSQZRBxnOTxt7Vm7f-22" value="人群分组" style="rounded=0;whiteSpace=wrap;html=1;fillColor=#f5f5f5;strokeColor=#666666;fontColor=#333333;" vertex="1" parent="1">
          <mxGeometry x="220" y="310" width="90" height="40" as="geometry" />
        </mxCell>
        <mxCell id="V11sSQZRBxnOTxt7Vm7f-23" value="ak_async_task" style="swimlane;fontStyle=0;childLayout=stackLayout;horizontal=1;startSize=26;horizontalStack=0;resizeParent=1;resizeParentMax=0;resizeLast=0;collapsible=1;marginBottom=0;" vertex="1" parent="1">
          <mxGeometry x="490" y="240" width="140" height="104" as="geometry">
            <mxRectangle x="490" y="240" width="110" height="26" as="alternateBounds" />
          </mxGeometry>
        </mxCell>
        <mxCell id="V11sSQZRBxnOTxt7Vm7f-24" value="task_config" style="text;strokeColor=none;fillColor=none;align=left;verticalAlign=top;spacingLeft=4;spacingRight=4;overflow=hidden;rotatable=0;points=[[0,0.5],[1,0.5]];portConstraint=eastwest;" vertex="1" parent="V11sSQZRBxnOTxt7Vm7f-23">
          <mxGeometry y="26" width="140" height="26" as="geometry" />
        </mxCell>
        <mxCell id="V11sSQZRBxnOTxt7Vm7f-25" value="task_callback" style="text;strokeColor=none;fillColor=none;align=left;verticalAlign=top;spacingLeft=4;spacingRight=4;overflow=hidden;rotatable=0;points=[[0,0.5],[1,0.5]];portConstraint=eastwest;" vertex="1" parent="V11sSQZRBxnOTxt7Vm7f-23">
          <mxGeometry y="52" width="140" height="26" as="geometry" />
        </mxCell>
        <mxCell id="V11sSQZRBxnOTxt7Vm7f-26" value="task_type" style="text;strokeColor=none;fillColor=none;align=left;verticalAlign=top;spacingLeft=4;spacingRight=4;overflow=hidden;rotatable=0;points=[[0,0.5],[1,0.5]];portConstraint=eastwest;" vertex="1" parent="V11sSQZRBxnOTxt7Vm7f-23">
          <mxGeometry y="78" width="140" height="26" as="geometry" />
        </mxCell>
      </root>
    </mxGraphModel>
  </diagram>
</mxfile>
